<svg width="304" height="298" viewBox="0 0 304 298" fill="none" xmlns="http://www.w3.org/2000/svg">
<path d="M48.5512 74.0743L42.9167 115.368L108.031 124.253L113.666 82.9592L48.5512 74.0743Z" fill="#EFF1FA"/>
<path d="M48.5525 74.066C50.8398 76.9521 53.192 79.7157 55.5009 82.5513C57.8099 85.387 60.191 88.1288 62.5576 90.8851C65.0181 93.7713 67.5002 96.6574 69.9751 99.4787C70.0544 99.5653 70.1194 99.6591 70.1987 99.7529C72.397 102.264 74.6025 104.772 76.8153 107.279L77.14 107.639L77.544 107.38C80.3436 105.556 83.1384 103.724 85.9283 101.881C86.0278 101.824 86.1241 101.761 86.217 101.694C89.3869 99.6158 92.5425 97.5161 95.6836 95.3947C98.6852 93.3744 101.701 91.318 104.696 89.2616C107.69 87.2052 110.692 85.1056 113.664 82.9482C110.576 84.7231 107.517 86.6064 104.45 88.4391C101.384 90.2718 98.3244 92.1839 95.2723 94.1032C91.8763 96.2149 88.4802 98.3627 85.0841 100.547C82.5395 102.163 79.9949 103.789 77.4502 105.424C75.4516 103.173 73.4385 100.907 71.4181 98.6778C68.734 95.6858 66.0378 92.7082 63.3297 89.7451C60.8957 87.0898 58.4544 84.4441 56.006 81.8081C53.4878 79.2394 51.049 76.6058 48.5525 74.066Z" fill="#EFF1FA"/>
<path d="M84.8455 101.477C84.8713 101.502 84.8954 101.529 84.9176 101.557L85.8268 102.567C87.2698 104.169 88.7634 105.713 90.2859 107.228C92.1475 109.09 94.0595 110.901 95.9861 112.697C97.9126 114.494 99.8752 116.226 101.888 117.928C103.901 119.631 105.929 121.32 108.05 122.893C106.311 120.894 104.443 119.004 102.617 117.12C100.792 115.237 98.8361 113.448 96.9241 111.658C95.012 109.869 93.0205 108.116 91.0146 106.405C89.42 105.042 87.7893 103.7 86.1082 102.415C85.7233 102.112 85.3337 101.816 84.9393 101.528L84.8455 101.477Z" fill="#EFF1FA"/>
<path d="M43.249 114.061C45.7239 113.109 48.1411 112.034 50.5222 110.93C52.9033 109.826 55.2627 108.643 57.6149 107.459C59.9671 106.276 62.2833 105.02 64.5706 103.722C66.4394 102.668 68.2865 101.557 70.0976 100.431C70.4944 100.186 70.8769 99.9408 71.2593 99.7099L71.3458 99.6522C71.3104 99.6614 71.2731 99.6614 71.2376 99.6522L69.8667 100.208C67.9113 100.994 65.992 101.86 64.0944 102.74C61.7061 103.852 59.3538 105.02 57.0088 106.218C54.6638 107.416 52.3477 108.657 50.0532 109.963C47.7587 111.269 45.4642 112.597 43.249 114.061Z" fill="#EFF1FA"/>
<path d="M65.1453 14.3174L11.2937 27.984L19.9604 62.1343L73.812 48.4677L65.1453 14.3174Z" fill="#EFF1FA"/>
<path d="M11.2913 27.9814C13.997 29.5111 16.7173 30.9398 19.4302 32.4261C22.1432 33.9125 24.8707 35.3123 27.5981 36.7554C30.441 38.2418 33.2911 39.6921 36.1412 41.1424L36.4009 41.2867L43.9699 45.0892L44.3379 45.2696L44.576 44.9377C46.1922 42.6215 47.794 40.2982 49.4031 37.9748C49.4626 37.8959 49.518 37.814 49.569 37.7295C51.3969 35.103 53.2056 32.4574 54.995 29.7925C56.7123 27.2599 58.4224 24.6912 60.118 22.1297C61.8136 19.5683 63.502 16.9707 65.1688 14.3443C63.3072 16.711 61.5106 19.157 59.6851 21.5597C57.8596 23.9624 56.0773 26.4373 54.2879 28.905C52.2965 31.6421 50.3122 34.4032 48.3352 37.1883C46.8584 39.2615 45.3793 41.342 43.8977 43.4296C41.5888 42.2752 39.2943 41.1568 37.007 40.0456C33.9477 38.5448 30.8883 37.0632 27.829 35.6009C25.0871 34.2949 22.3381 32.9961 19.589 31.7262C16.8399 30.4563 14.062 29.1792 11.2913 27.9814Z" fill="#EFF1FA"/>
<path d="M48.437 37.946C48.4619 37.9631 48.4885 37.9776 48.5164 37.9892L49.5482 38.4943C51.1885 39.288 52.8456 40.0336 54.5196 40.7311C56.5688 41.6114 58.6396 42.4195 60.7177 43.2132C62.7957 44.0069 64.8882 44.7501 67.0023 45.45C69.1164 46.1499 71.2449 46.8281 73.4096 47.3909C71.4109 46.3736 69.3761 45.4716 67.3342 44.5986C65.2922 43.7255 63.1998 42.9174 61.1289 42.1237C59.0581 41.33 56.9512 40.5796 54.8371 39.8797C53.1559 39.3169 51.4531 38.7757 49.7286 38.2995C49.3317 38.1841 48.9349 38.083 48.5308 37.9748L48.437 37.946Z" fill="#EFF1FA"/>
<path d="M19.8132 61.0353C21.4511 59.5128 23.0024 57.9038 24.5177 56.2731C26.0329 54.6424 27.5193 52.9829 28.984 51.3161C30.4488 49.6493 31.8702 47.9176 33.2483 46.1787C34.3812 44.7356 35.4923 43.2926 36.5458 41.8495L37.2168 40.9042C37.2168 40.9042 37.2168 40.8537 37.2673 40.8321L37.1952 40.897C36.8921 41.1856 36.5891 41.467 36.2932 41.7629C35.0089 42.9967 33.7751 44.2811 32.5557 45.587C31.0332 47.2105 29.5613 48.8773 28.1037 50.5513C26.6462 52.2252 25.2176 53.9425 23.8394 55.6886C22.4613 57.4348 21.0831 59.1592 19.8132 61.0353Z" fill="#EFF1FA"/>
<path d="M288.317 162.418L233.137 168.891L237.242 203.883L292.422 197.411L288.317 162.418Z" fill="#EFF1FA"/>
<path d="M233.129 168.906C235.611 170.774 238.122 172.549 240.612 174.389C243.101 176.229 245.626 177.961 248.145 179.721C250.663 181.482 253.405 183.38 256.038 185.191L256.276 185.364C258.6 186.956 260.933 188.546 263.275 190.133L263.622 190.357L263.896 190.061C265.82 187.978 267.72 185.888 269.596 183.791C269.669 183.724 269.736 183.652 269.798 183.575C271.948 181.208 274.089 178.822 276.22 176.417C278.255 174.137 280.282 171.813 282.302 169.497C284.323 167.181 286.336 164.829 288.313 162.433C286.148 164.54 284.056 166.763 281.927 168.877C279.799 170.991 277.706 173.206 275.607 175.45C273.274 177.894 270.948 180.368 268.629 182.875C266.89 184.736 265.159 186.612 263.42 188.481C261.298 187.038 259.177 185.631 257.056 184.231C254.227 182.341 251.389 180.469 248.542 178.618C246.002 176.958 243.45 175.318 240.886 173.697C238.267 172.102 235.713 170.457 233.129 168.906Z" fill="#EFF1FA"/>
<path d="M268.622 183.697L268.694 183.748C269.011 183.964 269.336 184.181 269.654 184.383C271.176 185.393 272.72 186.345 274.293 187.269C276.205 188.402 278.153 189.477 280.109 190.545C282.064 191.612 284.041 192.608 286.047 193.582C288.053 194.556 290.066 195.509 292.137 196.346C290.297 195.076 288.392 193.914 286.48 192.789C284.568 191.663 282.605 190.573 280.657 189.513C278.709 188.452 276.718 187.435 274.719 186.461C273.124 185.681 271.501 184.924 269.856 184.224C269.48 184.06 269.098 183.902 268.708 183.748L268.622 183.697Z" fill="#EFF1FA"/>
<path d="M237.235 202.768C239.061 201.469 240.843 200.076 242.524 198.669C244.205 197.262 245.93 195.783 247.575 194.34C249.22 192.897 250.879 191.36 252.481 189.809C253.787 188.553 255.072 187.276 256.313 185.949L257.106 185.097C257.127 185.077 257.147 185.055 257.164 185.032C257.141 185.054 257.114 185.071 257.085 185.083L256.082 185.804C254.639 186.865 253.253 187.969 251.868 189.102C250.143 190.545 248.47 191.988 246.817 193.431C245.165 194.874 243.513 196.411 241.911 197.962C240.309 199.514 238.736 201.101 237.235 202.768Z" fill="#EFF1FA"/>
<path d="M244.905 88.901L235.431 89.1031L230.626 89.1824C229.017 89.2185 227.4 89.1825 225.791 89.2257H225.474V88.901L225.431 80.827V80.4662H225.791L235.345 80.5095C238.527 80.5095 241.716 80.5961 244.898 80.6322H245.1V80.827C245.1 82.1979 245.042 83.5616 245.006 84.9037L244.905 88.901ZM244.905 88.901L244.811 84.846C244.775 83.4967 244.732 82.1691 244.717 80.8486L244.912 81.0435C241.73 81.0795 238.541 81.1589 235.359 81.1661L225.806 81.2094L226.167 80.8486V88.9227L225.842 88.598C227.415 88.598 228.988 88.598 230.568 88.6413L235.316 88.7207L244.905 88.901Z" fill="#EFF1FA"/>
<path d="M234.248 99.0821L224.774 99.2841L219.969 99.3635C218.367 99.3635 216.751 99.3635 215.142 99.4067H214.824V99.0821L214.788 91.008V90.6184H215.149L224.702 90.6617C227.884 90.6617 231.074 90.7483 234.256 90.7843H234.458V90.9791C234.458 92.3501 234.4 93.7138 234.364 95.0559L234.248 99.0821ZM234.248 99.0821L234.147 95.0054C234.111 93.6561 234.068 92.3284 234.053 91.008L234.248 91.2028C231.066 91.2389 227.877 91.3183 224.695 91.3255L215.142 91.3688L215.503 91.008L215.459 99.0821L215.142 98.7574C216.715 98.7574 218.288 98.7574 219.861 98.8007L224.609 98.88L234.248 99.0821Z" fill="#EFF1FA"/>
<path d="M255.563 99.0821L246.096 99.2841L241.291 99.3635C239.681 99.3635 238.065 99.3635 236.456 99.4067H236.153V99.0821L236.11 91.008V90.6184H236.471L246.024 90.6617C249.213 90.6617 252.395 90.7483 255.577 90.7843H255.779V90.9791C255.779 92.3501 255.714 93.7138 255.678 95.0559L255.563 99.0821ZM255.563 99.0821L255.462 95.0054C255.462 93.6561 255.382 92.3284 255.368 91.008L255.563 91.2028C252.381 91.2389 249.199 91.3183 246.009 91.3255L236.456 91.3688L236.817 91.008L236.781 99.0821L236.456 98.7574C238.029 98.7574 239.602 98.7574 241.182 98.8007L245.93 98.88L255.563 99.0821Z" fill="#EFF1FA"/>
<path d="M291.965 15.7872L282.491 15.9892L277.685 16.0686C276.076 16.0686 274.467 16.0686 272.858 16.1119H272.533V15.7872L272.497 7.71316V7.35239H272.865L282.419 7.39568C285.601 7.39568 288.782 7.48227 291.972 7.51834H292.167V7.71316C292.167 9.08409 292.102 10.4478 292.073 11.7899L291.965 15.7872ZM291.965 15.7872L291.856 11.7105C291.856 10.3612 291.777 9.03358 291.762 7.71316L291.965 7.90797C288.775 7.94405 285.593 8.02342 282.411 8.03064L272.858 8.07393L273.212 7.71316L273.176 15.7872L272.858 15.4625C274.431 15.4625 275.997 15.4625 277.577 15.5058L282.332 15.578L291.965 15.7872Z" fill="#EFF1FA"/>
<path d="M302.621 25.9681L293.155 26.1701L288.349 26.2495C286.747 26.2495 285.131 26.2495 283.522 26.2927H283.197V25.9681L283.161 17.894V17.5332H283.522L293.075 17.5765C296.257 17.5765 299.439 17.6631 302.629 17.6992H302.823V17.894C302.823 19.2649 302.758 20.6286 302.73 21.9707L302.621 25.9681ZM302.621 25.9681L302.535 21.8913C302.499 20.5421 302.448 19.2144 302.434 17.894L302.636 18.0888C299.447 18.1249 296.265 18.2043 293.083 18.2115L283.529 18.2548L283.89 17.894L283.847 25.9681L283.529 25.6434C285.102 25.6434 286.668 25.6434 288.248 25.6867L292.996 25.766L302.621 25.9681Z" fill="#EFF1FA"/>
<path d="M21.3932 15.7944L11.9266 15.9964L7.12113 16.0758C5.51209 16.1119 3.89583 16.0758 2.2868 16.1191H1.96932V15.7944L1.92603 7.72033V7.35956H2.2868L11.84 7.41007C15.0292 7.41007 18.2112 7.48944 21.3932 7.52551H21.5952V7.72033C21.5952 9.09126 21.5303 10.455 21.4942 11.8043L21.3932 15.7944ZM21.3932 15.7944L21.2922 11.7177C21.2922 10.3756 21.2128 9.04075 21.1984 7.72033L21.3932 7.92236C18.2112 7.92236 15.0292 8.03059 11.84 8.03781L2.2868 8.0811L2.64757 7.72033L2.61149 15.7944L2.2868 15.4769C3.85976 15.4769 5.43272 15.4769 7.01289 15.4769L11.7534 15.5779L21.3932 15.7944Z" fill="#EFF1FA"/>
<path d="M283.515 203.547L292.981 203.345L297.787 203.265C299.396 203.229 301.012 203.265 302.621 203.222H302.938V203.547L302.982 211.621V211.982H302.621L293.068 211.931C289.879 211.931 286.697 211.852 283.515 211.816H283.312V211.621C283.312 210.25 283.377 208.886 283.406 207.537L283.515 203.547ZM283.515 203.547L283.616 207.624C283.616 208.966 283.695 210.3 283.709 211.621L283.515 211.419C286.697 211.383 289.879 211.311 293.068 211.303L302.621 211.26L302.26 211.621L302.296 203.547L302.621 203.864C301.048 203.864 299.475 203.864 297.895 203.828L293.147 203.749L283.515 203.547Z" fill="#EFF1FA"/>
<path d="M2.28645 203.547L11.7531 203.345L16.5585 203.265C18.1604 203.229 19.7766 203.265 21.3857 203.222H21.7104V203.547V211.621V211.982H21.3496L11.7964 211.931C8.61437 211.931 5.43237 211.852 2.24316 211.816H2.04834V211.621C2.04834 210.25 2.11328 208.886 2.14214 207.537L2.28645 203.547ZM2.28645 203.547L2.38747 207.624C2.38747 208.966 2.47405 210.3 2.48848 211.621L2.28645 211.419C5.47566 211.383 8.65766 211.311 11.8397 211.303L21.3929 211.26L21.0321 211.621L21.0754 203.547L21.3929 203.864C19.8199 203.864 18.2542 203.864 16.674 203.828L11.9262 203.749L2.28645 203.547Z" fill="#EFF1FA"/>
<path d="M12.9443 193.366L22.4182 193.164L27.2236 193.085C28.8327 193.048 30.4417 193.085 32.0507 193.041H32.3754V193.366V201.44V201.801H32.0075L22.4975 201.736C19.3155 201.736 16.1335 201.656 12.9443 201.62H12.7495V201.426C12.7495 200.055 12.8144 198.691 12.8433 197.342L12.9443 193.366ZM12.9443 193.366L13.0526 197.443C13.0526 198.785 13.1319 200.12 13.1464 201.44L12.9443 201.238C16.1335 201.202 19.3155 201.13 22.4975 201.123L32.0507 201.079L31.6972 201.44V193.366L32.0147 193.683C30.4417 193.683 28.876 193.683 27.2958 193.683L22.5769 193.568L12.9443 193.366Z" fill="#EFF1FA"/>
<path d="M205.682 72.0097L303.992 72.0097V66.1725L205.682 66.1725V72.0097Z" fill="#EFF1FA"/>
<path d="M296.531 72.0097H290.694V91.3182H296.531V72.0097Z" fill="#EFF1FA"/>
<path d="M296.531 72.0097H290.694V77.9769H296.531V72.0097Z" fill="#EFF1FA"/>
<path d="M218.98 72.0097H213.143V91.3182H218.98V72.0097Z" fill="#EFF1FA"/>
<path d="M218.98 72.0097H213.143V77.9769H218.98V72.0097Z" fill="#EFF1FA"/>
<path d="M279.149 66.1726V28.9699H269.784V66.1726H279.149Z" fill="#EFF1FA"/>
<path d="M279.157 31.0765V26.9854H269.791V31.0765H279.157Z" fill="#EFF1FA"/>
<path d="M279.149 37.8233V36.308H269.784V37.8233H279.149Z" fill="#EFF1FA"/>
<path d="M279.157 61.3019V57.2108H268.622V61.3019H279.157Z" fill="#EFF1FA"/>
<path d="M269.784 66.1796V22.7788H263.24V66.1796H269.784Z" fill="#EFF1FA"/>
<path d="M268.507 43.5447V26.8555H264.575V43.5447H268.507Z" fill="#EFF1FA"/>
<path d="M221.262 66.2024L252.127 35.6907L247.526 31.0365L216.661 61.5482L221.262 66.2024Z" fill="#EFF1FA"/>
<path d="M227.57 58.0936L239.439 46.3607L236.674 43.5641L224.806 55.297L227.57 58.0936Z" fill="#EFF1FA"/>
<path d="M263.239 66.1867V33.2195H252.12V66.1867H263.239Z" fill="#A6A6A6"/>
<path d="M263.232 62.6874V59.6136H252.113V62.6874H263.232Z" fill="#EFF1FA"/>
<path d="M263.232 57.6005V56.4099H252.113V57.6005H263.232Z" fill="#EFF1FA"/>
<path d="M286.834 66.187V35.204H279.149V66.187H286.834Z" fill="#A6A6A6"/>
<path d="M286.834 62.8967V60.0105H279.149V62.8967H286.834Z" fill="#EFF1FA"/>
<path d="M286.827 44.4685V41.5823H279.142V44.4685H286.827Z" fill="#EFF1FA"/>
<path d="M286.834 47.571V46.4526H279.149V47.571H286.834Z" fill="#EFF1FA"/>
<path d="M0.90918 297.362L38.7973 297.188L76.6855 297.124L152.455 297.001L228.224 297.124L266.112 297.188L304 297.362L266.112 297.542L228.224 297.6L152.455 297.722L76.6855 297.6L38.7973 297.535L0.90918 297.362Z" fill="#263238"/>
<path d="M267.274 233.606C277.787 243.896 279.54 259.82 277.332 273.767C277.274 274.085 276.784 273.998 276.784 273.703C276.784 270.528 276.885 267.382 276.87 264.243C276.813 264.099 276.769 263.962 276.712 263.817C273.97 261.826 271.444 259.575 269.879 256.479C268.125 253.03 267.433 249.134 266.091 245.526C265.968 245.18 266.336 245.281 266.574 245.461C272.974 250.18 275.009 255.253 276.842 262.057C276.804 258.509 276.432 254.972 275.73 251.493C274.352 245.057 271.618 238.679 266.992 233.902C266.953 233.865 266.93 233.814 266.929 233.759C266.928 233.705 266.948 233.653 266.985 233.614C267.023 233.574 267.074 233.552 267.128 233.55C267.182 233.549 267.235 233.569 267.274 233.606Z" fill="#263238"/>
<path d="M265.297 234.804C263.486 234.869 262.353 237.755 260.968 238.599C260.82 238.719 260.649 238.807 260.465 238.857C260.281 238.907 260.088 238.917 259.9 238.888C259.712 238.859 259.531 238.79 259.371 238.687C259.211 238.584 259.074 238.448 258.969 238.289C257.57 236.334 259.489 233.96 261.293 232.589C260.001 233.116 258.933 234.032 257.541 234.313C257.363 234.371 257.175 234.39 256.989 234.368C256.804 234.347 256.625 234.286 256.465 234.19C256.305 234.093 256.167 233.963 256.062 233.809C255.956 233.655 255.885 233.48 255.852 233.296C255.239 230.641 258.573 229.458 260.86 229.4C259.749 228.635 256.574 226.514 258.262 225.503C259.951 224.493 263.703 227.466 264.922 228.455C266.704 229.898 268.84 232.062 268.919 234.342C269.006 236.99 266.69 235.36 265.297 234.804Z" fill="#6B34BC"/>
<path opacity="0.1" d="M265.297 234.804C263.486 234.869 262.353 237.755 260.968 238.599C260.82 238.719 260.649 238.807 260.465 238.857C260.281 238.907 260.088 238.917 259.9 238.888C259.712 238.859 259.531 238.79 259.371 238.687C259.211 238.584 259.074 238.448 258.969 238.289C257.57 236.334 259.489 233.96 261.293 232.589C260.001 233.116 258.933 234.032 257.541 234.313C257.363 234.371 257.175 234.39 256.989 234.368C256.804 234.347 256.625 234.286 256.465 234.19C256.305 234.093 256.167 233.963 256.062 233.809C255.956 233.655 255.885 233.48 255.852 233.296C255.239 230.641 258.573 229.458 260.86 229.4C259.749 228.635 256.574 226.514 258.262 225.503C259.951 224.493 263.703 227.466 264.922 228.455C266.704 229.898 268.84 232.062 268.919 234.342C269.006 236.99 266.69 235.36 265.297 234.804Z" fill="black"/>
<path d="M265.817 235.251C263.508 234.198 259.063 235.713 258.688 234.84C257.923 233.058 261.473 231.831 263.385 231.6C261.624 231.117 258.24 230.359 258.334 228.657C258.464 226.578 263.522 228.368 266.084 230.33C269.309 232.805 269.287 235.186 268.753 235.67C268.032 236.319 266.199 235.425 265.817 235.251Z" fill="#6B34BC"/>
<path d="M291.215 232.589C280.32 242.474 277.946 258.319 279.634 272.339C279.678 272.656 280.168 272.591 280.183 272.288C280.298 269.121 280.327 265.968 280.457 262.836L280.63 262.418C283.451 260.534 286.056 258.377 287.737 255.347C289.621 251.963 290.458 248.095 291.937 244.523C292.081 244.184 291.706 244.271 291.461 244.437C284.887 248.91 282.658 253.903 280.565 260.614C280.742 257.07 281.249 253.55 282.08 250.101C283.704 243.723 286.677 237.452 291.461 232.856C291.663 232.697 291.403 232.409 291.215 232.589Z" fill="#263238"/>
<path d="M293.156 233.859C294.96 233.989 295.984 236.918 297.362 237.82C297.505 237.946 297.673 238.04 297.855 238.097C298.037 238.154 298.229 238.171 298.418 238.149C298.608 238.126 298.79 238.064 298.954 237.967C299.117 237.869 299.259 237.738 299.368 237.582C300.811 235.684 299.015 233.21 297.268 231.81C298.531 232.387 299.563 233.361 300.941 233.679C301.117 233.744 301.305 233.77 301.492 233.757C301.679 233.743 301.861 233.689 302.025 233.598C302.189 233.508 302.332 233.383 302.444 233.233C302.556 233.082 302.634 232.909 302.673 232.726C303.394 230.1 300.097 228.786 297.817 228.642C298.957 227.921 302.211 225.944 300.559 224.847C298.906 223.75 295.053 226.6 293.798 227.545C291.958 228.924 289.743 231.009 289.577 233.274C289.353 235.901 291.713 234.364 293.156 233.859Z" fill="#6B34BC"/>
<path opacity="0.1" d="M293.156 233.859C294.96 233.989 295.984 236.918 297.362 237.82C297.505 237.946 297.673 238.04 297.855 238.097C298.037 238.154 298.229 238.171 298.418 238.149C298.608 238.126 298.79 238.064 298.954 237.967C299.117 237.869 299.259 237.738 299.368 237.582C300.811 235.684 299.015 233.21 297.268 231.81C298.531 232.387 299.563 233.361 300.941 233.679C301.117 233.744 301.305 233.77 301.492 233.757C301.679 233.743 301.861 233.689 302.025 233.598C302.189 233.508 302.332 233.383 302.444 233.233C302.556 233.082 302.634 232.909 302.673 232.726C303.394 230.1 300.097 228.786 297.817 228.642C298.957 227.921 302.211 225.944 300.559 224.847C298.906 223.75 295.053 226.6 293.798 227.545C291.958 228.924 289.743 231.009 289.577 233.274C289.353 235.901 291.713 234.364 293.156 233.859Z" fill="black"/>
<path d="M292.6 234.285C294.952 233.325 299.332 235.006 299.743 234.148C300.58 232.394 297.081 231.038 295.169 230.728C296.951 230.316 300.364 229.681 300.321 227.979C300.277 225.901 295.154 227.495 292.521 229.357C289.202 231.709 289.13 234.09 289.635 234.588C290.349 235.273 292.218 234.444 292.6 234.285Z" fill="#6B34BC"/>
<path d="M280.074 258.694C279.334 263.981 278.203 269.204 276.69 274.323C276.68 274.373 276.661 274.421 276.632 274.464C276.604 274.506 276.567 274.543 276.525 274.571C276.482 274.6 276.434 274.62 276.384 274.63C276.334 274.64 276.282 274.64 276.232 274.63C276.182 274.62 276.134 274.6 276.092 274.572C276.049 274.543 276.012 274.507 275.984 274.464C275.955 274.422 275.936 274.374 275.926 274.324C275.916 274.273 275.915 274.222 275.925 274.172C276.647 269.352 277.946 264.626 278.66 259.806C279.443 254.934 279.724 249.994 279.497 245.065C279.043 236.947 276.835 228.318 271.56 221.975C271.445 221.831 271.69 221.614 271.813 221.752C282.412 234.119 280.731 249.278 280.716 250.613C282.217 245.497 283.769 239.631 289.447 234.415C289.692 234.191 289.88 234.299 289.844 234.682C288.827 244.177 286.186 249.112 280.68 254.206C280.507 255.714 280.312 257.215 280.074 258.694Z" fill="#263238"/>
<path d="M271.444 223.382C269.54 222.531 266.906 224.962 265.016 225.128C264.801 225.179 264.579 225.183 264.363 225.142C264.147 225.1 263.942 225.014 263.761 224.888C263.581 224.762 263.429 224.599 263.316 224.411C263.202 224.222 263.13 224.012 263.103 223.794C262.634 221.073 265.838 219.536 268.385 219.053C266.776 218.952 265.203 219.378 263.63 218.952C263.417 218.924 263.211 218.85 263.029 218.736C262.846 218.621 262.69 218.469 262.572 218.289C262.453 218.109 262.375 217.905 262.342 217.692C262.31 217.479 262.323 217.262 262.382 217.054C263.103 213.988 267.137 214.435 269.54 215.532C268.775 214.175 266.531 210.394 268.818 210.178C271.105 209.962 273.479 214.955 274.244 216.593C275.37 218.995 276.488 222.314 275.427 224.71C274.194 227.517 272.606 224.659 271.444 223.382Z" fill="#6B34BC"/>
<path opacity="0.1" d="M271.444 223.382C269.54 222.531 266.906 224.962 265.016 225.128C264.801 225.179 264.579 225.183 264.363 225.142C264.147 225.1 263.942 225.014 263.761 224.888C263.581 224.762 263.429 224.599 263.316 224.411C263.202 224.222 263.13 224.012 263.103 223.794C262.634 221.073 265.838 219.536 268.385 219.053C266.776 218.952 265.203 219.378 263.63 218.952C263.417 218.924 263.211 218.85 263.029 218.736C262.846 218.621 262.69 218.469 262.572 218.289C262.453 218.109 262.375 217.905 262.342 217.692C262.31 217.479 262.323 217.262 262.382 217.054C263.103 213.988 267.137 214.435 269.54 215.532C268.775 214.175 266.531 210.394 268.818 210.178C271.105 209.962 273.479 214.955 274.244 216.593C275.37 218.995 276.488 222.314 275.427 224.71C274.194 227.517 272.606 224.659 271.444 223.382Z" fill="black"/>
<path d="M271.763 224.104C269.894 221.852 264.547 221.181 264.547 220.085C264.648 217.855 268.949 218.367 271.041 219.089C269.454 217.703 266.33 215.214 267.289 213.497C268.473 211.404 272.816 215.806 274.505 219.132C276.604 223.324 275.378 225.792 274.584 226.016C273.516 226.34 272.073 224.486 271.763 224.104Z" fill="#6B34BC"/>
<path d="M287.044 261.552L291.713 297.283H263.27C263.854 294.115 269.15 261.509 269.15 261.509L287.044 261.552Z" fill="#6B34BC"/>
<path d="M242.402 15.7946H118.073C116.406 15.8097 114.758 16.1532 113.223 16.8055C111.688 17.4577 110.297 18.406 109.129 19.596C107.962 20.7861 107.04 22.1946 106.416 23.7411C105.793 25.2876 105.48 26.9418 105.496 28.6092V284.547C105.468 287.913 106.776 291.154 109.134 293.556C111.492 295.959 114.707 297.328 118.073 297.362H242.402C245.77 297.329 248.987 295.962 251.348 293.559C253.709 291.157 255.02 287.915 254.993 284.547V28.6092C255.008 26.9409 254.694 25.286 254.07 23.7389C253.445 22.1919 252.522 20.7831 251.352 19.5931C250.183 18.403 248.791 17.455 247.255 16.8033C245.719 16.1515 244.07 15.8088 242.402 15.7946ZM247.128 276.632C247.128 283.371 242.077 288.819 235.857 288.819H124.632C118.398 288.819 113.347 283.371 113.347 276.632V38.3067C113.347 24.5974 118.398 23.8759 124.632 23.8759H146.913C148.212 23.8759 149.272 25.319 149.272 27.1733V27.9598C149.272 32.2313 151.61 32.2458 154.475 32.2458H206C208.886 32.2458 211.224 32.2458 211.224 27.9598V27.2094C211.224 25.3839 212.27 23.912 213.583 23.912H235.857C242.084 23.912 247.128 25.7375 247.128 38.3428V276.632Z" fill="#263238"/>
<path d="M247.135 38.3068V276.632C247.135 283.371 242.084 288.819 235.864 288.819H124.639C118.405 288.819 113.354 283.371 113.354 276.632V38.3068C113.354 24.5975 118.405 23.8759 124.639 23.8759H146.92C148.219 23.8759 149.279 25.319 149.279 27.1734V27.9599C149.279 32.2314 151.617 32.2458 154.482 32.2458H206.007C208.893 32.2458 211.231 32.2458 211.231 27.9599V27.2095C211.231 25.384 212.277 23.912 213.59 23.912H235.864C242.091 23.912 247.135 25.7375 247.135 38.3068Z" fill="#EFF1FA"/>
<path d="M247.135 38.3139V59.9602H113.354V38.3139C113.354 24.6047 118.405 23.8831 124.639 23.8831H146.92C148.219 23.8831 149.279 25.3262 149.279 27.1806V27.967C149.279 32.2386 151.617 32.253 154.482 32.253H206.007C208.893 32.253 211.231 32.253 211.231 27.967V27.2166C211.231 25.3911 212.277 23.9192 213.59 23.9192H235.864C242.091 23.9192 247.135 25.7447 247.135 38.3139Z" fill="#6B34BC"/>
<path d="M187.269 26.7404H173.213C172.983 26.7385 172.763 26.6457 172.6 26.4822C172.438 26.3186 172.347 26.0977 172.347 25.8673C172.347 25.7536 172.37 25.6411 172.413 25.536C172.457 25.431 172.52 25.3355 172.601 25.2551C172.681 25.1747 172.777 25.1109 172.882 25.0674C172.987 25.0239 173.099 25.0015 173.213 25.0015H187.269C187.382 25.0015 187.495 25.0239 187.6 25.0674C187.705 25.1109 187.8 25.1747 187.881 25.2551C187.961 25.3355 188.025 25.431 188.069 25.536C188.112 25.6411 188.135 25.7536 188.135 25.8673C188.135 25.9817 188.114 26.095 188.071 26.2009C188.028 26.3068 187.964 26.4031 187.883 26.4843C187.803 26.5654 187.707 26.6299 187.602 26.6738C187.496 26.7178 187.383 26.7404 187.269 26.7404Z" fill="#EFF1FA"/>
<path d="M133.687 44.2958H122.077V51.6556H133.687V44.2958Z" fill="#EFF1FA"/>
<path d="M133.694 44.2958C133.225 44.7432 132.748 45.1761 132.251 45.6163L130.807 46.9078L129.364 48.2355L129.321 48.2787L127.921 49.4404L127.856 49.4909L127.791 49.4404L126.478 48.2715H126.435C125.93 47.8314 125.425 47.3912 124.927 46.9439L123.484 45.6523C123.015 45.2122 122.539 44.7793 122.041 44.3319C122.539 44.7215 123.029 45.1184 123.484 45.5152C123.938 45.9121 124.465 46.3162 124.927 46.7274C125.389 47.1387 126.016 47.6366 126.558 48.0984L127.77 49.1374L128.989 48.0984L130.613 46.7274L132.056 45.5225L133.694 44.2958Z" fill="#6B34BC"/>
<path d="M126.674 48.2282L126.486 48.3798C126.197 48.6251 125.894 48.8632 125.591 49.1013C125.288 49.3394 124.87 49.6497 124.466 49.9166C124.062 50.1836 123.701 50.4434 123.311 50.6959C122.922 50.9485 122.518 51.1938 122.114 51.4175C122.46 51.1072 122.835 50.8186 123.196 50.5372C123.557 50.2558 123.917 49.9888 124.329 49.7218C124.74 49.4549 125.093 49.1951 125.483 48.9426C125.873 48.69 126.118 48.5457 126.443 48.3581C126.515 48.313 126.59 48.272 126.666 48.2355L126.674 48.2282Z" fill="#6B34BC"/>
<path d="M133.694 51.4246C133.283 51.2009 132.886 50.9556 132.496 50.7031C132.107 50.4505 131.717 50.1908 131.335 49.9238C130.952 49.6568 130.577 49.3899 130.209 49.1085C129.841 48.8271 129.61 48.6467 129.322 48.3869L129.134 48.2354L129.358 48.3653C129.685 48.5529 130.002 48.7477 130.31 48.9497C130.707 49.2023 131.089 49.462 131.472 49.729C131.854 49.996 132.229 50.2629 132.597 50.5443C132.965 50.8257 133.305 51.1144 133.694 51.4246Z" fill="#6B34BC"/>
<path d="M136.176 44.2959C136.176 44.7885 136.03 45.2701 135.756 45.6796C135.483 46.0891 135.093 46.4082 134.638 46.5964C134.183 46.7846 133.682 46.8334 133.199 46.7368C132.716 46.6402 132.272 46.4024 131.924 46.0535C131.576 45.7046 131.34 45.2604 131.245 44.7771C131.149 44.2937 131.2 43.793 131.389 43.3382C131.579 42.8835 131.899 42.4952 132.309 42.2225C132.72 41.9499 133.202 41.8051 133.694 41.8065C134.353 41.8084 134.985 42.0716 135.45 42.5382C135.915 43.0048 136.176 43.6369 136.176 44.2959Z" fill="#455A64"/>
<path d="M134.51 44.7936C134.508 44.8459 134.486 44.8955 134.448 44.9318C134.41 44.9682 134.36 44.9885 134.308 44.9884V45.2626C134.299 45.3088 134.274 45.3504 134.238 45.3803C134.202 45.4103 134.156 45.4266 134.109 45.4266C134.062 45.4266 134.017 45.4103 133.981 45.3803C133.944 45.3504 133.92 45.3088 133.911 45.2626V44.9884H132.785C132.763 44.9903 132.74 44.9874 132.719 44.9799C132.698 44.9725 132.679 44.9606 132.663 44.9451C132.644 44.9276 132.629 44.9064 132.619 44.8828C132.608 44.8592 132.603 44.8338 132.603 44.808C132.603 44.7823 132.608 44.7569 132.619 44.7333C132.629 44.7097 132.644 44.6885 132.663 44.671L133.918 42.997H133.976H134.091V44.4401C134.138 44.3846 134.205 44.35 134.278 44.3439C134.35 44.3378 134.422 44.3607 134.477 44.4076C134.533 44.4545 134.567 44.5215 134.573 44.5939C134.58 44.6663 134.557 44.7381 134.51 44.7936ZM133.875 43.7113L133.153 44.5988H133.875V43.7113Z" fill="#EFF1FA"/>
<path d="M143.074 29.0566L142.858 29.273L142.735 29.3957C142.184 28.8463 141.438 28.5377 140.661 28.5377C139.883 28.5377 139.137 28.8463 138.586 29.3957L138.471 29.273C138.399 29.2009 138.326 29.1359 138.261 29.0638L138.536 28.8185C138.728 28.6605 138.938 28.5272 139.163 28.4216C139.428 28.2883 139.709 28.1935 140 28.1402C140.137 28.1402 140.275 28.1402 140.412 28.0825H140.78H141.061C141.323 28.1117 141.58 28.1747 141.826 28.2701C142.005 28.3347 142.179 28.4143 142.345 28.5082C142.52 28.6104 142.687 28.7262 142.843 28.8545L143.067 29.0638L143.074 29.0566Z" fill="#EFF1FA"/>
<path d="M139.264 30.0735L138.925 29.7344C139.29 29.345 139.776 29.0907 140.303 29.0128C140.683 28.9596 141.07 28.9972 141.433 29.1226C141.795 29.2481 142.123 29.4577 142.389 29.7344L142.05 30.0735C141.679 29.7067 141.178 29.5017 140.657 29.5035C140.399 29.5014 140.143 29.5508 139.903 29.6486C139.664 29.7465 139.447 29.8909 139.264 30.0735Z" fill="#EFF1FA"/>
<path d="M141.71 30.4128C141.595 30.521 141.479 30.6365 141.371 30.7519C141.277 30.6563 141.165 30.5807 141.041 30.5298C140.917 30.479 140.784 30.4539 140.65 30.4561C140.515 30.453 140.382 30.4777 140.258 30.5286C140.134 30.5795 140.021 30.6556 139.928 30.7519L139.589 30.4128C139.727 30.2719 139.892 30.1599 140.074 30.0835C140.257 30.0071 140.452 29.9677 140.65 29.9677C140.847 29.9677 141.043 30.0071 141.225 30.0835C141.407 30.1599 141.572 30.2719 141.71 30.4128Z" fill="#EFF1FA"/>
<path d="M140.96 31.0552C140.961 31.1172 140.944 31.1781 140.911 31.2302C140.877 31.2824 140.829 31.3232 140.772 31.3476C140.715 31.372 140.652 31.3787 140.591 31.367C140.53 31.3552 140.474 31.3255 140.43 31.2817C140.387 31.2379 140.357 31.182 140.345 31.1211C140.333 31.0603 140.34 30.9973 140.365 30.9403C140.389 30.8833 140.43 30.835 140.482 30.8014C140.534 30.7679 140.595 30.7507 140.657 30.7522C140.737 30.7522 140.814 30.7841 140.871 30.8409C140.928 30.8978 140.96 30.9748 140.96 31.0552Z" fill="#EFF1FA"/>
<path d="M122.077 29.7063C122.077 29.5308 122.129 29.3592 122.227 29.2132C122.324 29.0673 122.463 28.9535 122.625 28.8863C122.787 28.8192 122.966 28.8016 123.138 28.8358C123.31 28.8701 123.468 28.9546 123.592 29.0787C123.716 29.2028 123.801 29.361 123.835 29.5331C123.869 29.7053 123.852 29.8837 123.785 30.0459C123.717 30.2081 123.604 30.3467 123.458 30.4442C123.312 30.5417 123.14 30.5938 122.965 30.5938C122.848 30.5938 122.733 30.5708 122.625 30.5262C122.517 30.4816 122.42 30.4162 122.337 30.3338C122.255 30.2514 122.189 30.1536 122.145 30.0459C122.1 29.9382 122.077 29.8228 122.077 29.7063Z" fill="#EFF1FA"/>
<path d="M124.87 29.7063C124.87 29.5308 124.922 29.3592 125.019 29.2132C125.117 29.0673 125.255 28.9535 125.417 28.8863C125.58 28.8192 125.758 28.8016 125.93 28.8358C126.102 28.8701 126.261 28.9546 126.385 29.0787C126.509 29.2028 126.593 29.361 126.628 29.5331C126.662 29.7053 126.644 29.8837 126.577 30.0459C126.51 30.2081 126.396 30.3467 126.25 30.4442C126.104 30.5417 125.933 30.5938 125.757 30.5938C125.522 30.5938 125.296 30.5003 125.13 30.3338C124.963 30.1674 124.87 29.9417 124.87 29.7063Z" fill="#EFF1FA"/>
<path d="M127.662 29.7063C127.662 29.5308 127.714 29.3592 127.812 29.2132C127.909 29.0673 128.048 28.9535 128.21 28.8863C128.372 28.8192 128.551 28.8016 128.723 28.8358C128.895 28.8701 129.053 28.9546 129.177 29.0787C129.302 29.2028 129.386 29.361 129.42 29.5331C129.455 29.7053 129.437 29.8837 129.37 30.0459C129.303 30.2081 129.189 30.3467 129.043 30.4442C128.897 30.5417 128.725 30.5938 128.55 30.5938C128.314 30.5938 128.089 30.5003 127.922 30.3338C127.756 30.1674 127.662 29.9417 127.662 29.7063Z" fill="#EFF1FA"/>
<path d="M130.454 29.7063C130.454 29.5308 130.506 29.3592 130.603 29.2132C130.701 29.0673 130.84 28.9535 131.002 28.8863C131.164 28.8192 131.342 28.8016 131.515 28.8358C131.687 28.8701 131.845 28.9546 131.969 29.0787C132.093 29.2028 132.178 29.361 132.212 29.5331C132.246 29.7053 132.228 29.8837 132.161 30.0459C132.094 30.2081 131.98 30.3467 131.834 30.4442C131.688 30.5417 131.517 30.5938 131.341 30.5938C131.225 30.5938 131.109 30.5708 131.002 30.5262C130.894 30.4816 130.796 30.4162 130.714 30.3338C130.631 30.2514 130.566 30.1536 130.521 30.0459C130.477 29.9382 130.454 29.8228 130.454 29.7063Z" fill="#EFF1FA"/>
<path d="M133.247 29.7063C133.247 29.5308 133.299 29.3592 133.396 29.2132C133.494 29.0673 133.632 28.9535 133.794 28.8863C133.957 28.8192 134.135 28.8016 134.307 28.8358C134.479 28.8701 134.638 28.9546 134.762 29.0787C134.886 29.2028 134.97 29.361 135.005 29.5331C135.039 29.7053 135.021 29.8837 134.954 30.0459C134.887 30.2081 134.773 30.3467 134.627 30.4442C134.481 30.5417 134.31 30.5938 134.134 30.5938C134.018 30.5938 133.902 30.5708 133.794 30.5262C133.687 30.4816 133.589 30.4162 133.507 30.3338C133.424 30.2514 133.359 30.1536 133.314 30.0459C133.27 29.9382 133.247 29.8228 133.247 29.7063Z" fill="#EFF1FA"/>
<path d="M237.091 31.6472H229.875V28.2992H237.091V31.6472ZM230.243 31.2792H236.737V28.6672H230.243V31.2792Z" fill="#EFF1FA"/>
<path d="M235.128 28.869H230.474V31.0769H235.128V28.869Z" fill="#EFF1FA"/>
<path d="M237.741 29.0786H237.099V30.868H237.741V29.0786Z" fill="#EFF1FA"/>
<path d="M168.732 45.7245C168.731 45.6673 168.742 45.6106 168.763 45.5576C168.785 45.5047 168.816 45.4566 168.857 45.4162C168.897 45.3758 168.945 45.3439 168.998 45.3225C169.051 45.3011 169.108 45.2906 169.165 45.2915C169.223 45.2906 169.28 45.3011 169.333 45.3224C169.386 45.3437 169.435 45.3755 169.476 45.4158C169.517 45.4561 169.549 45.5041 169.572 45.5571C169.594 45.6101 169.605 45.667 169.605 45.7245V50.3495C169.605 50.407 169.594 50.4639 169.572 50.5169C169.549 50.5699 169.517 50.6179 169.476 50.6582C169.435 50.6985 169.386 50.7303 169.333 50.7516C169.28 50.7729 169.223 50.7834 169.165 50.7825C169.108 50.7834 169.051 50.7729 168.998 50.7515C168.945 50.7301 168.897 50.6982 168.857 50.6578C168.816 50.6174 168.785 50.5693 168.763 50.5164C168.742 50.4634 168.731 50.4067 168.732 50.3495V45.7245Z" fill="#EFF1FA"/>
<path d="M171.936 50.3494C171.936 50.463 171.892 50.572 171.812 50.653C171.732 50.734 171.624 50.7804 171.511 50.7823C171.454 50.7823 171.398 50.7711 171.346 50.7492C171.294 50.7274 171.247 50.6954 171.207 50.6551C171.167 50.6148 171.136 50.567 171.115 50.5145C171.094 50.462 171.084 50.4059 171.085 50.3494V45.7892C171.08 45.72 171.092 45.6506 171.121 45.5875C171.15 45.5244 171.195 45.4697 171.251 45.4285C171.344 45.3644 171.457 45.3384 171.569 45.3558C171.68 45.3733 171.781 45.4329 171.85 45.5223L174.382 49.029V45.7892C174.384 45.6776 174.43 45.5711 174.509 45.4929C174.589 45.4146 174.696 45.3707 174.808 45.3707C174.92 45.3707 175.028 45.4143 175.109 45.4924C175.19 45.5705 175.237 45.6769 175.241 45.7892V50.3494C175.241 50.4642 175.195 50.5743 175.114 50.6555C175.033 50.7367 174.923 50.7823 174.808 50.7823C174.746 50.7803 174.685 50.7652 174.629 50.7378C174.573 50.7104 174.523 50.6715 174.483 50.6236V50.5803L171.936 47.0952V50.3494Z" fill="#EFF1FA"/>
<path d="M177.123 50.3495V45.7244C177.123 45.6096 177.169 45.4995 177.25 45.4183C177.331 45.3371 177.441 45.2915 177.556 45.2915H178.667C179.062 45.2915 179.441 45.4478 179.721 45.7264C180.001 46.0049 180.159 46.383 180.161 46.7778C180.163 47.1016 180.056 47.4168 179.858 47.6726C180.168 47.865 180.407 48.1531 180.539 48.4935C180.671 48.8338 180.689 49.2079 180.589 49.5591C180.49 49.9104 180.279 50.2197 179.988 50.4404C179.697 50.6611 179.343 50.7811 178.978 50.7824H177.585C177.526 50.7864 177.466 50.7781 177.411 50.7581C177.355 50.7381 177.303 50.7069 177.26 50.6663C177.217 50.6257 177.182 50.5766 177.159 50.5221C177.135 50.4676 177.123 50.4088 177.123 50.3495ZM177.996 47.42H178.667C178.835 47.4162 178.993 47.3467 179.11 47.2264C179.226 47.1062 179.29 46.945 179.288 46.7778C179.288 46.6967 179.272 46.6164 179.241 46.5415C179.209 46.4666 179.163 46.3987 179.106 46.3416C179.048 46.2846 178.98 46.2395 178.904 46.2091C178.829 46.1787 178.749 46.1636 178.667 46.1645H177.996V47.42ZM177.996 49.9093H178.978C179.18 49.8903 179.367 49.7965 179.504 49.6464C179.641 49.4963 179.716 49.3006 179.716 49.0976C179.716 48.8946 179.641 48.6989 179.504 48.5488C179.367 48.3987 179.18 48.3049 178.978 48.2859H177.996V49.9093Z" fill="#EFF1FA"/>
<path d="M186.114 45.9698C186.624 46.5062 186.908 47.2178 186.908 47.9576C186.908 48.6975 186.624 49.4091 186.114 49.9455C185.875 50.2059 185.586 50.4145 185.263 50.5585C184.94 50.7025 184.591 50.7787 184.238 50.7825C183.878 50.7799 183.523 50.7044 183.193 50.5606C182.863 50.4167 182.566 50.2075 182.319 49.9455C181.817 49.405 181.539 48.695 181.539 47.9576C181.539 47.2203 181.817 46.5103 182.319 45.9698C182.567 45.7117 182.865 45.5069 183.195 45.368C183.525 45.229 183.88 45.1588 184.238 45.1617C184.59 45.1605 184.937 45.2316 185.26 45.3706C185.583 45.5097 185.874 45.7136 186.114 45.9698ZM186.013 47.954C186.013 47.4463 185.823 46.9571 185.479 46.5831C185.323 46.4088 185.131 46.2693 184.918 46.1736C184.704 46.0779 184.472 46.0282 184.238 46.0275C183.999 46.0264 183.763 46.0752 183.544 46.1709C183.326 46.2666 183.129 46.407 182.968 46.5831C182.625 46.9571 182.434 47.4463 182.434 47.954C182.431 48.4623 182.622 48.9525 182.968 49.325C183.129 49.502 183.325 49.6436 183.544 49.7405C183.762 49.8374 183.999 49.8876 184.238 49.8878C184.473 49.8858 184.705 49.8347 184.918 49.7377C185.132 49.6408 185.323 49.5002 185.479 49.325C185.825 48.9525 186.016 48.4623 186.013 47.954Z" fill="#EFF1FA"/>
<path d="M191.994 46.0347L190.501 48.0478L191.994 50.0825C192.06 50.1747 192.087 50.2891 192.07 50.4011C192.052 50.5131 191.992 50.6137 191.901 50.6814C191.828 50.7366 191.739 50.7669 191.648 50.768C191.579 50.7661 191.512 50.7489 191.451 50.7177C191.39 50.6865 191.336 50.642 191.295 50.5876L189.974 48.7693L188.646 50.5804C188.605 50.6339 188.553 50.6778 188.493 50.709C188.433 50.7401 188.368 50.7578 188.3 50.7608C188.208 50.7619 188.119 50.7313 188.048 50.6742C187.956 50.6076 187.893 50.5075 187.874 50.3954C187.856 50.2834 187.881 50.1684 187.947 50.0753L189.44 48.0405L187.947 46.013C187.882 45.9211 187.856 45.8072 187.875 45.6964C187.894 45.5855 187.956 45.4866 188.048 45.4214C188.092 45.3847 188.143 45.3579 188.198 45.3427C188.254 45.3275 188.312 45.3242 188.368 45.3331C188.425 45.3419 188.479 45.3628 188.527 45.3941C188.575 45.4255 188.616 45.4668 188.646 45.5152L189.974 47.3262L191.287 45.5224C191.319 45.4738 191.36 45.4325 191.409 45.401C191.457 45.3696 191.512 45.3487 191.569 45.3399C191.627 45.331 191.685 45.3343 191.741 45.3496C191.797 45.3649 191.849 45.3918 191.893 45.4286C191.941 45.461 191.981 45.5026 192.012 45.551C192.043 45.5993 192.064 45.6535 192.073 45.7101C192.083 45.7667 192.08 45.8246 192.067 45.8804C192.053 45.9362 192.029 45.9887 191.994 46.0347Z" fill="#EFF1FA"/>
<path d="M228.707 50.7389L227.798 51.4604L226.116 49.2381L225.503 48.4227C225.629 48.3735 225.748 48.308 225.857 48.2279C226.06 48.069 226.219 47.8602 226.319 47.6218L226.975 48.4805L228.707 50.7389Z" fill="#EFF1FA"/>
<path d="M226.917 45.5006C226.629 45.125 226.239 44.8397 225.794 44.6784C225.349 44.517 224.867 44.4864 224.405 44.5901C223.943 44.6938 223.52 44.9275 223.186 45.2636C222.853 45.5998 222.622 46.0243 222.522 46.4871C222.422 46.9499 222.456 47.4317 222.621 47.8756C222.786 48.3195 223.074 48.707 223.452 48.9925C223.83 49.2779 224.281 49.4493 224.753 49.4864C225.226 49.5236 225.698 49.4249 226.116 49.2021C226.238 49.1387 226.354 49.0638 226.463 48.9784C226.662 48.83 226.835 48.6496 226.975 48.4445C227.281 48.0119 227.44 47.4927 227.43 46.9631C227.419 46.4334 227.24 45.9209 226.917 45.5006ZM225.856 48.1919C225.748 48.272 225.629 48.3375 225.503 48.3868C225.185 48.5134 224.834 48.5264 224.508 48.4233C224.182 48.3202 223.902 48.1075 223.716 47.8213C223.529 47.5352 223.447 47.1932 223.484 46.8534C223.521 46.5137 223.674 46.1973 223.918 45.9578C224.162 45.7183 224.481 45.5707 224.821 45.5399C225.161 45.5091 225.502 45.5971 225.785 45.7889C226.068 45.9807 226.275 46.2645 226.372 46.5921C226.47 46.9197 226.451 47.2708 226.318 47.5859C226.219 47.8242 226.06 48.033 225.856 48.1919Z" fill="#EFF1FA"/>
<path d="M216.369 44.6779H209.774V51.2728H216.369V44.6779Z" fill="#EFF1FA"/>
<path d="M213.432 45.9047H212.71V50.0535H213.432V45.9047Z" fill="#6B34BC"/>
<path d="M210.993 47.6147V48.3362H215.142V47.6147H210.993Z" fill="#6B34BC"/>
<path d="M237.091 45.1037C237.091 45.2164 237.057 45.3267 236.995 45.4204C236.932 45.5141 236.843 45.5872 236.739 45.6303C236.635 45.6735 236.52 45.6848 236.409 45.6628C236.299 45.6408 236.197 45.5865 236.118 45.5068C236.038 45.4271 235.984 45.3255 235.962 45.2149C235.94 45.1043 235.951 44.9897 235.994 44.8856C236.037 44.7814 236.11 44.6924 236.204 44.6298C236.298 44.5671 236.408 44.5337 236.521 44.5337C236.596 44.5337 236.67 44.5484 236.739 44.5771C236.808 44.6057 236.871 44.6477 236.924 44.7007C236.977 44.7536 237.019 44.8164 237.047 44.8856C237.076 44.9547 237.091 45.0289 237.091 45.1037Z" fill="#EFF1FA"/>
<path d="M237.091 48.0476C237.091 48.1988 237.031 48.3438 236.924 48.4507C236.817 48.5576 236.672 48.6176 236.521 48.6176C236.37 48.6176 236.225 48.5576 236.118 48.4507C236.011 48.3438 235.951 48.1988 235.951 48.0476C235.951 47.9728 235.965 47.8986 235.994 47.8295C236.023 47.7603 236.065 47.6975 236.118 47.6446C236.171 47.5916 236.233 47.5496 236.303 47.521C236.372 47.4923 236.446 47.4776 236.521 47.4776C236.596 47.4776 236.67 47.4923 236.739 47.521C236.808 47.5496 236.871 47.5916 236.924 47.6446C236.977 47.6975 237.019 47.7603 237.047 47.8295C237.076 47.8986 237.091 47.9728 237.091 48.0476Z" fill="#EFF1FA"/>
<path d="M237.091 51.0202C237.091 51.0951 237.076 51.1692 237.047 51.2384C237.019 51.3075 236.977 51.3704 236.924 51.4233C236.871 51.4762 236.808 51.5182 236.739 51.5469C236.67 51.5755 236.596 51.5903 236.521 51.5903C236.446 51.5903 236.372 51.5755 236.303 51.5469C236.233 51.5182 236.171 51.4762 236.118 51.4233C236.065 51.3704 236.023 51.3075 235.994 51.2384C235.965 51.1692 235.951 51.0951 235.951 51.0202C235.951 50.8691 236.011 50.7241 236.118 50.6172C236.225 50.5103 236.37 50.4502 236.521 50.4502C236.672 50.4502 236.817 50.5103 236.924 50.6172C237.031 50.7241 237.091 50.8691 237.091 51.0202Z" fill="#EFF1FA"/>
<path d="M247.128 59.9315H113.354V80.5892H247.128V59.9315Z" fill="#EFF1FA"/>
<path d="M135.137 74.2542C134.718 74.5132 134.26 74.7032 133.781 74.817C132.637 75.0916 131.432 74.9249 130.405 74.3503C129.379 73.7756 128.607 72.8352 128.243 71.7166C127.879 70.598 127.951 69.3833 128.443 68.3149C128.935 67.2464 129.811 66.4027 130.898 65.9519C131.984 65.5011 133.201 65.4765 134.305 65.8828C135.408 66.2891 136.319 67.0966 136.854 68.1442C137.389 69.1918 137.509 70.4025 137.191 71.535C136.873 72.6674 136.14 73.6384 135.137 74.2542Z" fill="#6B34BC"/>
<path d="M134.062 69.694C134.062 69.9794 133.977 70.2584 133.819 70.4957C133.66 70.733 133.435 70.918 133.171 71.0272C132.907 71.1364 132.617 71.165 132.337 71.1093C132.057 71.0536 131.8 70.9162 131.598 70.7144C131.397 70.5126 131.259 70.2554 131.204 69.9755C131.148 69.6956 131.176 69.4054 131.286 69.1417C131.395 68.878 131.58 68.6527 131.817 68.4941C132.054 68.3355 132.333 68.2509 132.619 68.2509C133.002 68.2509 133.369 68.4029 133.639 68.6736C133.91 68.9442 134.062 69.3112 134.062 69.694Z" fill="#EFF1FA"/>
<path d="M135.137 73.6625V74.2542C134.718 74.5131 134.26 74.7032 133.781 74.817C133.172 74.9691 132.54 74.9977 131.92 74.9011C131.3 74.8044 130.706 74.5844 130.173 74.2542V73.6625C130.173 73.008 130.433 72.3804 130.896 71.9176C131.359 71.4548 131.986 71.1948 132.641 71.1948C133.295 71.1948 133.923 71.4548 134.386 71.9176C134.848 72.3804 135.108 73.008 135.108 73.6625H135.137Z" fill="#EFF1FA"/>
<path d="M162.094 73.3664H155.889L158.421 70.2638L155.889 67.1612H162.094L164.627 70.2638L162.094 73.3664Z" fill="#EFF1FA"/>
<path d="M146.148 67.1612L147.158 69.2032L149.409 69.5278L147.779 71.1225L148.168 73.3664L146.148 72.3058L144.135 73.3664L144.517 71.1225L142.887 69.5278L145.138 69.2032L146.148 67.1612Z" fill="#6B34BC"/>
<path d="M205.69 69.0011H169.079V71.5265H205.69V69.0011Z" fill="#263238"/>
<path d="M235.128 69.0011H220.777V71.5265H235.128V69.0011Z" fill="#455A64"/>
<path d="M135.137 94.9478C134.718 95.2068 134.26 95.3968 133.781 95.5106C132.637 95.7851 131.432 95.6185 130.405 95.0438C129.379 94.4692 128.607 93.5288 128.243 92.4102C127.879 91.2915 127.951 90.0769 128.443 89.0085C128.935 87.94 129.811 87.0963 130.898 86.6455C131.984 86.1947 133.201 86.17 134.305 86.5763C135.408 86.9827 136.319 87.7901 136.854 88.8377C137.389 89.8853 137.509 91.0961 137.191 92.2286C136.873 93.361 136.14 94.332 135.137 94.9478Z" fill="#455A64"/>
<path d="M134.062 90.388C134.062 90.6734 133.977 90.9524 133.819 91.1897C133.66 91.427 133.435 91.612 133.171 91.7212C132.907 91.8304 132.617 91.859 132.337 91.8033C132.057 91.7476 131.8 91.6102 131.598 91.4084C131.397 91.2066 131.259 90.9494 131.204 90.6695C131.148 90.3896 131.176 90.0994 131.286 89.8357C131.395 89.572 131.58 89.3467 131.817 89.1881C132.054 89.0295 132.333 88.9449 132.619 88.9449C133.002 88.9449 133.369 89.0969 133.639 89.3676C133.91 89.6382 134.062 90.0052 134.062 90.388Z" fill="#EFF1FA"/>
<path d="M135.137 94.32V94.9477C134.718 95.2067 134.26 95.3967 133.781 95.5105C133.173 95.6648 132.539 95.6944 131.919 95.5977C131.299 95.501 130.705 95.2799 130.173 94.9477V94.3561C130.173 93.7016 130.433 93.0739 130.896 92.6112C131.359 92.1484 131.986 91.8884 132.641 91.8884C133.295 91.8884 133.923 92.1484 134.386 92.6112C134.848 93.0739 135.108 93.7016 135.108 94.3561L135.137 94.32Z" fill="#EFF1FA"/>
<path d="M162.094 94.0242H155.889L158.421 90.9215L155.889 87.8189H162.094L164.627 90.9215L162.094 94.0242Z" fill="#EFF1FA"/>
<path d="M162.181 94.2264H155.507L158.191 90.9434L155.507 87.6604H162.181L164.858 90.9434L162.181 94.2264ZM156.271 93.8656H162.044L164.425 90.9434L162.044 88.0572H156.271L158.653 90.9434L156.271 93.8656Z" fill="#EFF1FA"/>
<path d="M146.148 87.8189L147.158 89.8609L149.409 90.1856L147.779 91.7802L148.168 94.0242L146.148 92.9635L144.135 94.0242L144.517 91.7802L142.887 90.1856L145.138 89.8609L146.148 87.8189Z" fill="#6B34BC"/>
<path d="M205.69 89.6588H169.079V92.1842H205.69V89.6588Z" fill="#263238"/>
<path d="M235.128 89.6588H220.777V92.1842H235.128V89.6588Z" fill="#455A64"/>
<path d="M247.128 101.247H113.354V121.905H247.128V101.247Z" fill="#EFF1FA"/>
<path d="M135.137 115.57C134.717 115.828 134.259 116.02 133.78 116.14C132.631 116.422 131.417 116.261 130.381 115.687C129.345 115.114 128.563 114.172 128.192 113.048C127.82 111.924 127.886 110.701 128.376 109.623C128.866 108.546 129.745 107.693 130.836 107.234C131.927 106.775 133.152 106.745 134.264 107.149C135.377 107.553 136.297 108.362 136.839 109.414C137.382 110.466 137.508 111.684 137.193 112.825C136.877 113.966 136.143 114.946 135.137 115.57Z" fill="#6B34BC"/>
<path d="M134.062 111.046C134.062 111.331 133.977 111.61 133.819 111.847C133.66 112.085 133.435 112.27 133.171 112.379C132.907 112.488 132.617 112.517 132.337 112.461C132.057 112.405 131.8 112.268 131.598 112.066C131.397 111.864 131.259 111.607 131.204 111.327C131.148 111.047 131.176 110.757 131.286 110.493C131.395 110.23 131.58 110.004 131.817 109.846C132.054 109.687 132.333 109.603 132.619 109.603C133.002 109.603 133.369 109.755 133.639 110.025C133.91 110.296 134.062 110.663 134.062 111.046Z" fill="#EFF1FA"/>
<path d="M135.137 114.978V115.57C134.717 115.828 134.259 116.02 133.781 116.14C133.172 116.292 132.539 116.321 131.919 116.223C131.299 116.125 130.705 115.903 130.173 115.57V114.978C130.173 114.323 130.433 113.696 130.896 113.233C131.359 112.77 131.986 112.51 132.641 112.51C133.295 112.51 133.923 112.77 134.386 113.233C134.848 113.696 135.108 114.323 135.108 114.978H135.137Z" fill="#EFF1FA"/>
<path d="M162.094 114.682H155.889L158.421 111.579L155.889 108.477H162.094L164.627 111.579L162.094 114.682Z" fill="#EFF1FA"/>
<path d="M146.148 108.477L147.158 110.519L149.409 110.843L147.779 112.438L148.168 114.682L146.148 113.621L144.135 114.682L144.517 112.438L142.887 110.843L145.138 110.519L146.148 108.477Z" fill="#EFF1FA"/>
<path d="M205.69 110.317H169.079V112.842H205.69V110.317Z" fill="#EFF1FA"/>
<path d="M235.128 110.317H220.777V112.842H235.128V110.317Z" fill="#EFF1FA"/>
<path d="M135.137 136.227C134.717 136.486 134.259 136.678 133.78 136.797C132.631 137.08 131.417 136.918 130.381 136.345C129.345 135.772 128.563 134.829 128.192 133.705C127.82 132.581 127.886 131.359 128.376 130.281C128.866 129.203 129.745 128.35 130.836 127.892C131.927 127.433 133.152 127.403 134.264 127.807C135.377 128.211 136.297 129.02 136.839 130.072C137.382 131.124 137.508 132.342 137.193 133.483C136.877 134.624 136.143 135.604 135.137 136.227Z" fill="#A6A6A6"/>
<path d="M134.062 131.703C134.062 131.989 133.977 132.268 133.819 132.505C133.66 132.742 133.435 132.927 133.171 133.037C132.907 133.146 132.617 133.174 132.337 133.119C132.057 133.063 131.8 132.926 131.598 132.724C131.397 132.522 131.259 132.265 131.204 131.985C131.148 131.705 131.176 131.415 131.286 131.151C131.395 130.887 131.58 130.662 131.817 130.504C132.054 130.345 132.333 130.26 132.619 130.26C133.002 130.26 133.369 130.412 133.639 130.683C133.91 130.954 134.062 131.321 134.062 131.703Z" fill="#EFF1FA"/>
<path d="M135.137 135.643V136.227C134.717 136.486 134.259 136.678 133.781 136.797C133.172 136.95 132.539 136.978 131.919 136.88C131.299 136.782 130.705 136.56 130.173 136.227V135.643C130.173 134.988 130.433 134.361 130.896 133.898C131.359 133.435 131.986 133.175 132.641 133.175C133.295 133.175 133.923 133.435 134.386 133.898C134.848 134.361 135.108 134.988 135.108 135.643H135.137Z" fill="#EFF1FA"/>
<path d="M162.094 135.34H155.889L158.421 132.237L155.889 129.134H162.094L164.627 132.237L162.094 135.34Z" fill="#EFF1FA"/>
<path d="M162.181 135.52H155.507L158.191 132.237L155.507 128.954H162.181L164.858 132.237L162.181 135.52ZM156.271 135.16H162.044L164.425 132.273L162.044 129.351H156.271L158.653 132.273L156.271 135.16Z" fill="#EFF1FA"/>
<path d="M146.148 129.134L147.158 131.176L149.409 131.508L147.779 133.096L148.168 135.34L146.148 134.279L144.135 135.34L144.517 133.096L142.887 131.508L145.138 131.176L146.148 129.134Z" fill="#6B34BC"/>
<path d="M205.69 130.974H169.079V133.5H205.69V130.974Z" fill="#EFF1FA"/>
<path d="M235.128 130.974H220.777V133.5H235.128V130.974Z" fill="#EFF1FA"/>
<path d="M247.128 142.57H113.354V163.227H247.128V142.57Z" fill="#EFF1FA"/>
<path d="M135.137 156.885C134.717 157.143 134.259 157.336 133.78 157.455C132.631 157.737 131.417 157.576 130.381 157.003C129.345 156.43 128.563 155.487 128.192 154.363C127.82 153.239 127.886 152.016 128.376 150.939C128.866 149.861 129.745 149.008 130.836 148.549C131.927 148.091 133.152 148.06 134.264 148.465C135.377 148.869 136.297 149.677 136.839 150.729C137.382 151.781 137.508 152.999 137.193 154.14C136.877 155.281 136.143 156.262 135.137 156.885Z" fill="#37474F"/>
<path d="M134.062 152.361C134.062 152.647 133.977 152.926 133.819 153.163C133.66 153.4 133.435 153.585 133.171 153.694C132.907 153.804 132.617 153.832 132.337 153.777C132.057 153.721 131.8 153.583 131.598 153.382C131.397 153.18 131.259 152.923 131.204 152.643C131.148 152.363 131.176 152.073 131.286 151.809C131.395 151.545 131.58 151.32 131.817 151.161C132.054 151.003 132.333 150.918 132.619 150.918C133.002 150.918 133.369 151.07 133.639 151.341C133.91 151.611 134.062 151.978 134.062 152.361Z" fill="#EFF1FA"/>
<path d="M135.137 156.279V156.864C134.717 157.122 134.259 157.314 133.781 157.434C133.172 157.586 132.539 157.615 131.919 157.517C131.299 157.419 130.705 157.197 130.173 156.864V156.279C130.173 155.625 130.433 154.997 130.896 154.534C131.359 154.071 131.986 153.811 132.641 153.811C133.295 153.811 133.923 154.071 134.386 154.534C134.848 154.997 135.108 155.625 135.108 156.279H135.137Z" fill="#EFF1FA"/>
<path d="M162.094 155.997H155.889L158.421 152.895L155.889 149.792H162.094L164.627 152.895L162.094 155.997Z" fill="#EFF1FA"/>
<path d="M146.148 149.792L147.158 151.834L149.409 152.166L147.779 153.753L148.168 155.997L146.148 154.937L144.135 155.997L144.517 153.753L142.887 152.166L145.138 151.834L146.148 149.792Z" fill="#6B34BC"/>
<path d="M205.69 151.632H169.079V154.157H205.69V151.632Z" fill="#EFF1FA"/>
<path d="M235.128 151.632H220.777V154.157H235.128V151.632Z" fill="#EFF1FA"/>
<path d="M247.135 266.516V276.617C247.165 278.706 246.665 280.767 245.684 282.61C244.702 284.454 243.27 286.018 241.521 287.159H118.975C117.225 286.019 115.792 284.454 114.811 282.611C113.829 280.768 113.33 278.706 113.361 276.617V266.516H247.135Z" fill="#EFF1FA"/>
<path d="M135.137 280.839C134.717 281.097 134.259 281.289 133.78 281.409C132.631 281.691 131.417 281.53 130.381 280.956C129.345 280.383 128.563 279.441 128.192 278.317C127.82 277.193 127.886 275.97 128.376 274.892C128.866 273.815 129.745 272.962 130.836 272.503C131.927 272.044 133.152 272.014 134.264 272.418C135.377 272.822 136.297 273.631 136.839 274.683C137.382 275.735 137.508 276.953 137.193 278.094C136.877 279.235 136.143 280.215 135.137 280.839Z" fill="#6B34BC"/>
<path d="M134.062 276.315C134.062 276.6 133.977 276.879 133.819 277.116C133.66 277.354 133.435 277.539 133.171 277.648C132.907 277.757 132.617 277.786 132.337 277.73C132.057 277.674 131.8 277.537 131.598 277.335C131.397 277.133 131.259 276.876 131.204 276.596C131.148 276.316 131.176 276.026 131.286 275.762C131.395 275.499 131.58 275.273 131.817 275.115C132.054 274.956 132.333 274.872 132.619 274.872C133.002 274.872 133.369 275.024 133.639 275.294C133.91 275.565 134.062 275.932 134.062 276.315Z" fill="#EFF1FA"/>
<path d="M135.137 280.247V280.839C134.717 281.097 134.259 281.289 133.781 281.409C133.172 281.56 132.539 281.587 131.919 281.489C131.299 281.391 130.706 281.17 130.173 280.839V280.247C130.173 279.592 130.433 278.965 130.896 278.502C131.359 278.039 131.986 277.779 132.641 277.779C133.295 277.779 133.923 278.039 134.386 278.502C134.848 278.965 135.108 279.592 135.108 280.247H135.137Z" fill="#EFF1FA"/>
<path d="M162.094 279.951H155.889L158.421 276.849L155.889 273.746H162.094L164.627 276.849L162.094 279.951Z" fill="#EFF1FA"/>
<path d="M146.148 273.746L147.158 275.788L149.409 276.113L147.779 277.707L148.168 279.951L146.148 278.891L144.135 279.951L144.517 277.707L142.887 276.113L145.138 275.788L146.148 273.746Z" fill="#6B34BC"/>
<path d="M205.69 275.586H169.079V278.111H205.69V275.586Z" fill="#EFF1FA"/>
<path d="M235.128 275.586H220.777V278.111H235.128V275.586Z" fill="#EFF1FA"/>
<path d="M135.138 177.543C134.507 177.931 133.793 178.165 133.055 178.225C132.316 178.286 131.574 178.17 130.889 177.889C130.204 177.607 129.595 177.168 129.112 176.606C128.629 176.044 128.285 175.376 128.11 174.656C127.905 173.815 127.936 172.932 128.201 172.107C128.466 171.282 128.954 170.547 129.611 169.982C130.268 169.417 131.068 169.045 131.924 168.907C132.779 168.768 133.656 168.869 134.458 169.199C135.259 169.528 135.954 170.072 136.465 170.772C136.977 171.471 137.285 172.299 137.355 173.162C137.425 174.026 137.256 174.892 136.864 175.665C136.473 176.438 135.875 177.088 135.138 177.543Z" fill="#263238"/>
<path d="M134.062 173.019C134.062 173.304 133.977 173.583 133.819 173.821C133.66 174.058 133.435 174.243 133.171 174.352C132.907 174.461 132.617 174.49 132.337 174.434C132.057 174.379 131.8 174.241 131.598 174.039C131.397 173.837 131.259 173.58 131.204 173.3C131.148 173.02 131.176 172.73 131.286 172.467C131.395 172.203 131.58 171.978 131.817 171.819C132.054 171.66 132.333 171.576 132.619 171.576C133.002 171.576 133.369 171.728 133.639 171.998C133.91 172.269 134.062 172.636 134.062 173.019Z" fill="#EFF1FA"/>
<path d="M135.137 176.958V177.543C134.396 178.003 133.541 178.247 132.669 178.247C131.797 178.247 130.942 178.003 130.202 177.543V176.958C130.202 176.304 130.462 175.676 130.924 175.213C131.387 174.751 132.015 174.491 132.669 174.491C133.324 174.491 133.951 174.751 134.414 175.213C134.877 175.676 135.137 176.304 135.137 176.958Z" fill="#EFF1FA"/>
<path d="M162.094 176.655H155.889L158.421 173.552L155.889 170.45H162.094L164.627 173.552L162.094 176.655Z" fill="#EFF1FA"/>
<path d="M162.181 176.836H155.507L158.191 173.553L155.507 170.27H162.181L164.858 173.553L162.181 176.836ZM156.271 176.475H162.044L164.425 173.553L162.044 170.631H156.271L158.653 173.553L156.271 176.475Z" fill="#EFF1FA"/>
<path d="M146.148 170.45L147.158 172.492L149.409 172.824L147.779 174.411L148.168 176.655L146.148 175.594L144.135 176.655L144.517 174.411L142.887 172.824L145.138 172.492L146.148 170.45Z" fill="#EFF1FA"/>
<path d="M148.406 176.987L146.148 175.804L143.89 176.987L144.323 174.476L142.497 172.694L145.022 172.333L146.148 170.046L147.274 172.333L149.799 172.694L147.974 174.476L148.406 176.987ZM146.148 175.392L147.923 176.33L147.584 174.346L149.027 172.946L147.036 172.658L146.148 170.861L145.239 172.658L143.255 172.946L144.698 174.346L144.359 176.33L146.148 175.392Z" fill="#EFF1FA"/>
<path d="M205.69 172.29H169.079V174.816H205.69V172.29Z" fill="#EFF1FA"/>
<path d="M235.128 172.29H220.777V174.816H235.128V172.29Z" fill="#EFF1FA"/>
<path d="M247.128 183.885H113.354V204.543H247.128V183.885Z" fill="#EFF1FA"/>
<path d="M135.137 198.208C134.716 198.464 134.259 198.653 133.781 198.77C132.879 198.989 131.934 198.936 131.063 198.618C130.192 198.299 129.435 197.73 128.888 196.981C128.34 196.232 128.027 195.338 127.988 194.412C127.948 193.485 128.185 192.568 128.666 191.776C129.148 190.984 129.854 190.352 130.695 189.961C131.536 189.569 132.473 189.436 133.39 189.578C134.306 189.719 135.16 190.129 135.844 190.756C136.527 191.383 137.009 192.198 137.23 193.099C137.463 194.062 137.387 195.075 137.011 195.992C136.636 196.91 135.98 197.685 135.137 198.208Z" fill="#6B34BC"/>
<path d="M134.062 193.677C134.062 193.962 133.977 194.241 133.819 194.478C133.66 194.716 133.435 194.901 133.171 195.01C132.907 195.119 132.617 195.148 132.337 195.092C132.057 195.036 131.8 194.899 131.598 194.697C131.397 194.495 131.259 194.238 131.204 193.958C131.148 193.678 131.176 193.388 131.286 193.124C131.395 192.861 131.58 192.635 131.817 192.477C132.054 192.318 132.333 192.234 132.619 192.234C133.002 192.234 133.369 192.386 133.639 192.656C133.91 192.927 134.062 193.294 134.062 193.677Z" fill="#EFF1FA"/>
<path d="M135.137 197.616V198.208C134.717 198.464 134.259 198.653 133.781 198.77C133.172 198.923 132.539 198.951 131.919 198.854C131.299 198.756 130.705 198.533 130.173 198.2V197.616C130.173 196.962 130.433 196.334 130.896 195.871C131.359 195.408 131.986 195.148 132.641 195.148C133.295 195.148 133.923 195.408 134.386 195.871C134.848 196.334 135.108 196.962 135.108 197.616H135.137Z" fill="#EFF1FA"/>
<path d="M162.094 197.32H155.889L158.421 194.21L155.889 191.108H162.094L164.627 194.21L162.094 197.32Z" fill="#EFF1FA"/>
<path d="M146.148 191.108L147.158 193.157L149.409 193.481L147.779 195.069L148.168 197.32L146.148 196.259L144.135 197.32L144.517 195.069L142.887 193.481L145.138 193.157L146.148 191.108Z" fill="#6B34BC"/>
<path d="M205.69 192.955H169.079V195.48H205.69V192.955Z" fill="#263238"/>
<path d="M235.128 192.955H220.777V195.48H235.128V192.955Z" fill="#455A64"/>
<path d="M135.137 218.865C134.718 219.124 134.26 219.314 133.781 219.428C132.879 219.647 131.934 219.594 131.063 219.275C130.192 218.957 129.435 218.387 128.888 217.639C128.34 216.89 128.027 215.996 127.988 215.07C127.948 214.143 128.185 213.226 128.666 212.434C129.148 211.641 129.854 211.01 130.695 210.618C131.536 210.227 132.473 210.094 133.39 210.236C134.306 210.377 135.16 210.787 135.844 211.414C136.527 212.041 137.009 212.856 137.23 213.757C137.463 214.72 137.387 215.733 137.011 216.65C136.636 217.568 135.98 218.343 135.137 218.865Z" fill="#6B34BC"/>
<path d="M134.062 214.334C134.062 214.62 133.977 214.899 133.819 215.136C133.66 215.373 133.435 215.558 133.171 215.668C132.907 215.777 132.617 215.805 132.337 215.75C132.057 215.694 131.8 215.557 131.598 215.355C131.397 215.153 131.259 214.896 131.204 214.616C131.148 214.336 131.176 214.046 131.286 213.782C131.395 213.518 131.58 213.293 131.817 213.134C132.054 212.976 132.333 212.891 132.619 212.891C133.002 212.891 133.369 213.043 133.639 213.314C133.91 213.585 134.062 213.952 134.062 214.334Z" fill="#EFF1FA"/>
<path d="M135.137 218.274V218.865C134.718 219.124 134.26 219.314 133.781 219.428C133.172 219.581 132.539 219.609 131.919 219.511C131.299 219.413 130.705 219.191 130.173 218.858V218.274C130.173 217.619 130.433 216.992 130.896 216.529C131.359 216.066 131.986 215.806 132.641 215.806C133.295 215.806 133.923 216.066 134.386 216.529C134.848 216.992 135.108 217.619 135.108 218.274H135.137Z" fill="#EFF1FA"/>
<path d="M162.094 217.978H155.889L158.421 214.876L155.889 211.773H162.094L164.627 214.876L162.094 217.978Z" fill="#EFF1FA"/>
<path d="M162.181 218.158H155.507L158.191 214.875L155.507 211.592H162.181L164.858 214.875L162.181 218.158ZM156.271 217.798H162.044L164.425 214.875L162.044 211.989H156.271L158.653 214.875L156.271 217.798Z" fill="#EFF1FA"/>
<path d="M146.148 211.773L147.158 213.815L149.409 214.14L147.779 215.727L148.168 217.978L146.148 216.917L144.135 217.978L144.517 215.727L142.887 214.14L145.138 213.815L146.148 211.773Z" fill="#EFF1FA"/>
<path d="M148.406 218.331L146.148 217.148L143.89 218.331L144.323 215.82L142.497 214.002L145.022 213.634L146.148 211.347L147.274 213.634L149.799 214.002L147.974 215.777L148.406 218.331ZM143.276 214.298L144.719 215.698L144.38 217.675L146.155 216.737L147.93 217.675L147.591 215.698L149.034 214.298L147.043 214.002L146.155 212.206L145.239 214.002L143.276 214.298Z" fill="#EFF1FA"/>
<path d="M205.69 213.613H169.079V216.138H205.69V213.613Z" fill="#EFF1FA"/>
<path d="M235.128 213.613H220.777V216.138H235.128V213.613Z" fill="#EFF1FA"/>
<path d="M247.128 225.2H113.354V245.858H247.128V225.2Z" fill="#EFF1FA"/>
<path d="M135.137 239.523C134.718 239.782 134.26 239.972 133.781 240.086C132.637 240.361 131.432 240.194 130.405 239.619C129.379 239.045 128.607 238.104 128.243 236.986C127.879 235.867 127.951 234.652 128.443 233.584C128.935 232.515 129.811 231.672 130.898 231.221C131.984 230.77 133.201 230.745 134.305 231.152C135.408 231.558 136.319 232.366 136.854 233.413C137.389 234.461 137.509 235.672 137.191 236.804C136.873 237.936 136.14 238.907 135.137 239.523Z" fill="#455A64"/>
<path d="M134.062 234.992C134.062 235.277 133.977 235.556 133.819 235.794C133.66 236.031 133.435 236.216 133.171 236.325C132.907 236.434 132.617 236.463 132.337 236.407C132.057 236.352 131.8 236.214 131.598 236.012C131.397 235.811 131.259 235.554 131.204 235.274C131.148 234.994 131.176 234.703 131.286 234.44C131.395 234.176 131.58 233.951 131.817 233.792C132.054 233.634 132.333 233.549 132.619 233.549C133.002 233.549 133.369 233.701 133.639 233.972C133.91 234.242 134.062 234.609 134.062 234.992Z" fill="#EFF1FA"/>
<path d="M135.137 238.931V239.523C134.718 239.782 134.26 239.972 133.781 240.086C133.172 240.238 132.54 240.267 131.92 240.17C131.3 240.073 130.706 239.853 130.173 239.523V238.931C130.173 238.277 130.433 237.649 130.896 237.187C131.359 236.724 131.986 236.464 132.641 236.464C133.295 236.464 133.923 236.724 134.386 237.187C134.848 237.649 135.108 238.277 135.108 238.931H135.137Z" fill="#EFF1FA"/>
<path d="M162.094 238.636H155.889L158.421 235.533L155.889 232.431H162.094L164.627 235.533L162.094 238.636Z" fill="#EFF1FA"/>
<path d="M146.148 232.431L147.158 234.473L149.409 234.797L147.779 236.385L148.168 238.636L146.148 237.575L144.135 238.636L144.517 236.385L142.887 234.797L145.138 234.473L146.148 232.431Z" fill="#EFF1FA"/>
<path d="M205.69 234.271H169.079V236.796H205.69V234.271Z" fill="#EFF1FA"/>
<path d="M235.128 234.271H220.777V236.796H235.128V234.271Z" fill="#EFF1FA"/>
<path d="M135.137 260.181C134.718 260.44 134.26 260.63 133.781 260.744C132.637 261.018 131.432 260.852 130.405 260.277C129.379 259.702 128.607 258.762 128.243 257.643C127.879 256.525 127.951 255.31 128.443 254.242C128.935 253.173 129.811 252.329 130.898 251.879C131.984 251.428 133.201 251.403 134.305 251.809C135.408 252.216 136.319 253.023 136.854 254.071C137.389 255.118 137.509 256.329 137.191 257.462C136.873 258.594 136.14 259.565 135.137 260.181Z" fill="#A6A6A6"/>
<path d="M134.062 255.657C134.062 255.942 133.977 256.221 133.819 256.459C133.66 256.696 133.435 256.881 133.171 256.99C132.907 257.099 132.617 257.128 132.337 257.072C132.057 257.017 131.8 256.879 131.598 256.677C131.397 256.476 131.259 256.218 131.204 255.938C131.148 255.659 131.176 255.368 131.286 255.105C131.395 254.841 131.58 254.616 131.817 254.457C132.054 254.298 132.333 254.214 132.619 254.214C133.002 254.214 133.369 254.366 133.639 254.637C133.91 254.907 134.062 255.274 134.062 255.657Z" fill="#EFF1FA"/>
<path d="M135.137 259.589V260.181C134.718 260.44 134.26 260.63 133.781 260.744C133.173 260.898 132.539 260.928 131.919 260.831C131.299 260.734 130.705 260.513 130.173 260.181V259.589C130.173 258.935 130.433 258.307 130.896 257.844C131.359 257.381 131.986 257.122 132.641 257.122C133.295 257.122 133.923 257.381 134.386 257.844C134.848 258.307 135.108 258.935 135.108 259.589H135.137Z" fill="#EFF1FA"/>
<path d="M162.094 259.294H155.889L158.421 256.191L155.889 253.088H162.094L164.627 256.191L162.094 259.294Z" fill="#EFF1FA"/>
<path d="M162.181 259.46H155.507L158.191 256.177L155.507 252.893H162.181L164.858 256.177L162.181 259.46ZM156.271 259.099H162.044L164.425 256.213L162.044 253.29H156.271L158.653 256.213L156.271 259.099Z" fill="#EFF1FA"/>
<path d="M146.148 253.088L147.158 255.13L149.409 255.455L147.779 257.05L148.168 259.294L146.148 258.233L144.135 259.294L144.517 257.05L142.887 255.455L145.138 255.13L146.148 253.088Z" fill="#EFF1FA"/>
<path d="M148.406 259.625L146.148 258.435L143.89 259.625L144.323 257.107L142.497 255.332L145.022 254.964L146.148 252.677L147.274 254.964L149.799 255.332L147.974 257.107L148.406 259.625ZM146.148 258.016L147.923 258.947L147.584 256.97L149.027 255.57L147.036 255.282L146.148 253.478L145.261 255.282L143.276 255.57L144.719 256.97L144.38 258.947L146.148 258.016Z" fill="#EFF1FA"/>
<path d="M205.69 254.928H169.079V257.454H205.69V254.928Z" fill="#EFF1FA"/>
<path d="M235.128 254.928H220.777V257.454H235.128V254.928Z" fill="#EFF1FA"/>
</svg>
