<svg width="56" height="55" viewBox="0 0 56 55" fill="none" xmlns="http://www.w3.org/2000/svg">
<rect x="1" y="0.5" width="54" height="54" rx="27" fill="#EFF1FA"/>
<rect x="1" y="0.5" width="54" height="54" rx="27" stroke="#6B34BC"/>
<g clip-path="url(#clip0_1_761)">
<path d="M32.6864 15C31.3536 15.0922 29.7958 15.9453 28.888 17.0562C28.0599 18.064 27.3786 19.5609 27.6443 21.0156C29.1005 21.0609 30.6052 20.1875 31.477 19.0578C32.2927 18.0062 32.9098 16.5187 32.6864 15Z" fill="black"/>
<path d="M37.9536 23.3874C36.6739 21.7827 34.8755 20.8515 33.1771 20.8515C30.9349 20.8515 29.9865 21.9249 28.4287 21.9249C26.8224 21.9249 25.6021 20.8546 23.6631 20.8546C21.7584 20.8546 19.7303 22.0187 18.4443 24.0093C16.6365 26.8124 16.9459 32.0827 19.8756 36.5717C20.924 38.178 22.324 39.9842 24.1552 39.9998C25.7849 40.0155 26.2443 38.9545 28.4521 38.9436C30.6599 38.9311 31.0786 40.0139 32.7052 39.9967C34.538 39.9826 36.0146 37.9811 37.063 36.3749C37.8145 35.2233 38.0942 34.6436 38.677 33.3436C34.438 31.7296 33.7583 25.7015 37.9536 23.3874Z" fill="black"/>
</g>
<defs>
<clipPath id="clip0_1_761">
<rect width="25" height="25" fill="white" transform="translate(15.5 15)"/>
</clipPath>
</defs>
</svg>
