<svg width="60" height="61" viewBox="0 0 60 61" fill="none" xmlns="http://www.w3.org/2000/svg">
<circle cx="30" cy="30.5" r="30" fill="#355F9E" fill-opacity="0.3"/>
<circle cx="29.9999" cy="30.4999" r="25.3846" fill="#355F9E"/>
<path d="M32.9129 34.8693C36.0103 35.4539 38.2052 36.9514 38.2052 38.7052V40.7565H21.7949V38.7052C21.7949 36.9514 23.9898 35.4539 27.0872 34.8693L30.0001 39.7308L32.9129 34.8693ZM25.8975 26.3975H34.1026V28.4488C34.1026 29.5369 33.6704 30.5804 32.901 31.3497C32.1316 32.1191 31.0881 32.5514 30.0001 32.5514C28.912 32.5514 27.8685 32.1191 27.0991 31.3497C26.3297 30.5804 25.8975 29.5369 25.8975 28.4488V26.3975ZM25.8975 25.3719L26.318 21.1667C26.3435 20.9129 26.4627 20.6776 26.6524 20.5069C26.842 20.3363 27.0885 20.2424 27.3436 20.2437H32.6667C33.1898 20.2437 33.6308 20.6437 33.6821 21.1667L34.1026 25.3719H25.8975ZM30.0001 21.2693H28.9744V22.2949H27.9488V23.3206H28.9744V24.3462H30.0001V23.3206H31.0257V22.2949H30.0001V21.2693Z" fill="#EFF1FA"/>
</svg>
