<svg width="43" height="51" viewBox="0 0 43 51" fill="none" xmlns="http://www.w3.org/2000/svg">
<path d="M40.2641 35.8585C37.1509 29.9434 34.0377 30.8774 30.6132 30.5661C30.9245 31.5 30.9245 32.434 30.9245 33.6793C35.9056 34.9245 37.1509 40.8396 37.1509 44.2642V47.3774H30.9245V44.2642H34.0377C34.0377 44.2642 34.0377 36.4811 29.3679 36.4811C24.6981 36.4811 24.6981 43.9528 24.6981 44.2642H27.8113V47.3774H21.5849V44.2642C21.5849 40.8396 22.8302 34.6132 27.8113 33.6793C27.8113 31.8113 27.5 30.2547 27.1887 29.6321C26.566 29.3208 25.9434 28.6981 25.9434 27.7642C25.9434 25.8962 28.4339 26.5189 30.3019 23.0944C30.3019 23.0944 33.1038 15.934 32.1698 9.70756H29.0566C29.0566 9.08492 29.3679 8.7736 29.3679 8.15096C29.3679 7.52832 29.3679 7.217 29.0566 6.59435H31.5472C30.6132 3.48115 27.5 0.67926 21.5849 0.67926C15.6698 0.67926 12.5566 3.48115 11.3113 6.90568H13.8019C13.8019 7.52832 13.4906 7.83964 13.4906 8.46228C13.4906 9.08492 13.4906 9.39624 13.8019 10.0189H10.6887C10.066 16.2453 12.5566 23.4057 12.5566 23.4057C14.4245 26.5189 16.9151 25.8962 16.9151 28.0755C16.9151 29.6321 15.3585 30.2547 13.4906 30.5661C12.8679 31.1887 12.2453 32.434 12.2453 34.9245V38.6604C14.1132 39.283 15.3585 41.151 15.3585 43.0189C15.3585 45.1981 13.1792 47.3774 10.6887 47.3774C8.1981 47.3774 6.01885 45.1981 6.01885 42.7076C6.01885 40.5283 7.26414 38.9717 9.13206 38.3491V34.6132C9.13206 33.0566 9.44338 31.8113 9.7547 30.5661C7.57546 30.8774 5.08489 31.8113 2.90565 35.8585C1.03772 39.283 0.10376 50.4906 0.10376 50.4906H42.7547C43.066 50.4906 42.1321 39.283 40.2641 35.8585ZM16.9151 8.46228C16.9151 5.97171 19.0943 3.79247 21.5849 3.79247C24.0755 3.79247 26.2547 5.97171 26.2547 8.46228C26.2547 10.9528 24.0755 13.1321 21.5849 13.1321C19.0943 13.1321 16.9151 10.9528 16.9151 8.46228Z" fill="#8389A8"/>
</svg>
