<svg width="51" height="51" viewBox="0 0 51 51" fill="none" xmlns="http://www.w3.org/2000/svg">
<path d="M35.9623 19.3585C35.9623 16.4923 34.8 13.8979 32.9238 12.0217C31.0455 10.1434 28.4511 8.98114 25.5849 8.98114C22.7187 8.98114 20.1243 10.1434 18.246 12.0217C16.3698 13.8979 15.2076 16.4923 15.2076 19.3585C15.2076 22.2247 16.3698 24.8191 18.246 26.6953C20.1243 28.5736 22.7187 29.7359 25.5849 29.7359C28.4511 29.7359 31.0455 28.5736 32.9238 26.6953C33.8886 25.7328 34.6537 24.5892 35.1751 23.3301C35.6966 22.071 35.9641 20.7213 35.9623 19.3585ZM13.1321 40.1132C13.1321 42.1887 17.8019 44.2642 25.5849 44.2642C32.8864 44.2642 38.0377 42.1887 38.0377 40.1132C38.0377 35.9623 33.1521 31.8113 25.5849 31.8113C17.8019 31.8113 13.1321 35.9623 13.1321 40.1132Z" fill="#6B34BC"/>
</svg>
