<svg width="17" height="13" viewBox="0 0 17 13" fill="none" xmlns="http://www.w3.org/2000/svg">
<path d="M6.64724 5.86237C6.29849 5.74612 6.29849 5.25364 6.64724 5.13739L8.69429 4.45574C9.14429 4.3057 9.55315 4.05291 9.88847 3.7174C10.2238 3.3819 10.4764 2.9729 10.6262 2.52282L11.3078 0.47682C11.4241 0.12807 11.9165 0.12807 12.0328 0.47682L12.7144 2.52388C12.8645 2.97387 13.1173 3.38273 13.4528 3.71806C13.7883 4.05338 14.1973 4.30595 14.6473 4.45574L16.6933 5.13739C16.7697 5.16245 16.8362 5.21099 16.8834 5.27609C16.9305 5.34118 16.9559 5.4195 16.9559 5.49988C16.9559 5.58025 16.9305 5.65857 16.8834 5.72367C16.8362 5.78876 16.7697 5.8373 16.6933 5.86237L14.6463 6.54401C14.1964 6.69395 13.7876 6.94658 13.4523 7.28189C13.117 7.61721 12.8644 8.026 12.7144 8.47588L12.0328 10.5229C12.0077 10.5993 11.9592 10.6658 11.8941 10.7129C11.829 10.7601 11.7507 10.7855 11.6703 10.7855C11.5899 10.7855 11.5116 10.7601 11.4465 10.7129C11.3814 10.6658 11.3329 10.5993 11.3078 10.5229L10.6262 8.47588C10.4762 8.026 10.2236 7.61721 9.88828 7.28189C9.55296 6.94658 9.14417 6.69395 8.69429 6.54401L6.64724 5.86237ZM1.25852 9.94486C1.21275 9.9297 1.17293 9.90051 1.1447 9.86143C1.11647 9.82234 1.10128 9.77536 1.10128 9.72715C1.10128 9.67894 1.11647 9.63196 1.1447 9.59288C1.17293 9.55379 1.21275 9.5246 1.25852 9.50945L2.48654 9.10046C3.03397 8.91763 3.46304 8.48856 3.64587 7.94113L4.05486 6.7131C4.07001 6.66734 4.09921 6.62751 4.13829 6.59928C4.17737 6.57106 4.22435 6.55586 4.27257 6.55586C4.32077 6.55586 4.36776 6.57106 4.40684 6.59928C4.44592 6.62751 4.47511 6.66734 4.49027 6.7131L4.89926 7.94113C4.98921 8.21112 5.14081 8.45645 5.34204 8.65768C5.54327 8.85891 5.7886 9.0105 6.05859 9.10046L7.28661 9.50945C7.33238 9.5246 7.3722 9.55379 7.40043 9.59287C7.42866 9.63196 7.44385 9.67894 7.44385 9.72715C7.44385 9.77536 7.42866 9.82234 7.40043 9.86143C7.3722 9.90051 7.33238 9.9297 7.28661 9.94486L6.05859 10.3538C5.7886 10.4438 5.54327 10.5954 5.34204 10.7966C5.14081 10.9979 4.98921 11.2432 4.89926 11.5132L4.49027 12.7412C4.47511 12.787 4.44592 12.8268 4.40684 12.855C4.36776 12.8832 4.32078 12.8984 4.27257 12.8984C4.22436 12.8984 4.17737 12.8832 4.13829 12.855C4.09921 12.8268 4.07001 12.787 4.05486 12.7412L3.64587 11.5132C3.55592 11.2432 3.40432 10.9979 3.20309 10.7966C3.00186 10.5954 2.75653 10.4438 2.48654 10.3538L1.25852 9.94486ZM0.149917 2.47421C0.119826 2.46377 0.0937323 2.44423 0.0752652 2.41828C0.056798 2.39233 0.0468745 2.36127 0.0468745 2.32942C0.0468745 2.29757 0.056798 2.26652 0.0752651 2.24057C0.0937323 2.21462 0.119826 2.19507 0.149917 2.18464L0.967894 1.91198C1.33355 1.79045 1.61995 1.50405 1.74149 1.13839L2.01414 0.320412C2.02458 0.29032 2.04413 0.264227 2.07007 0.24576C2.09602 0.227293 2.12708 0.217369 2.15893 0.217369C2.19078 0.217369 2.22183 0.227293 2.24778 0.24576C2.27373 0.264227 2.29328 0.29032 2.30371 0.320412L2.57637 1.13839C2.63632 1.31859 2.73745 1.48233 2.87173 1.61662C3.00602 1.7509 3.16976 1.85203 3.34996 1.91198L4.16794 2.18464C4.19803 2.19507 4.22412 2.21462 4.24259 2.24057C4.26106 2.26652 4.27098 2.29757 4.27098 2.32942C4.27098 2.36127 4.26106 2.39233 4.24259 2.41828C4.22412 2.44423 4.19803 2.46377 4.16794 2.47421L3.34996 2.74687C3.16976 2.80681 3.00602 2.90794 2.87173 3.04223C2.73745 3.17651 2.63632 3.34026 2.57637 3.52046L2.30371 4.33738C2.29328 4.36747 2.27373 4.39356 2.24778 4.41203C2.22183 4.4305 2.19078 4.44042 2.15893 4.44042C2.12708 4.44042 2.09602 4.4305 2.07007 4.41203C2.04413 4.39356 2.02458 4.36747 2.01414 4.33738L1.74149 3.5194C1.61995 3.15374 1.33355 2.86734 0.967894 2.74581L0.150974 2.47421L0.149917 2.47421Z" fill="#EFF1FA"/>
</svg>
